<?xml version="1.0" encoding="UTF-8"?><svg id="Layer_1" xmlns="http://www.w3.org/2000/svg" viewBox="0 0 244.34 137.57"><defs><style>.cls-1{font-family:Galvji-Bold, Galvji;font-size:55.24px;font-weight:700;}</style></defs><text class="cls-1" transform="translate(194.33 122.2)"><tspan x="0" y="0">{}</tspan></text><g><polygon points="89.73 131.75 59.9 131.75 32.07 93.02 25.15 100.11 25.15 131.75 0 131.75 0 0 25.15 0 25.15 73.66 26.71 73.66 58.61 36.4 87.22 36.4 50.91 77.29 89.73 131.75"/><path d="M173.7,53.04c-1.75-4.01-4.31-7.39-7.65-10.16-3.34-2.76-7.47-4.88-12.4-6.35-4.93-1.47-10.54-2.21-16.82-2.21s-11.45,.67-16.38,1.99c-4.93,1.33-9.2,3.24-12.84,5.75-3.63,2.51-6.52,5.53-8.68,9.08-2.16,3.54-3.45,7.51-3.85,11.88h23.17c1.03-2.88,3.02-5.07,5.96-6.57,2.94-1.49,6.69-2.24,11.24-2.24,5.24,0,9.24,1.08,11.97,3.24,2.74,2.16,4.11,5.23,4.11,9.2v7.79l-23.08,1.38c-11.93,.69-21.07,3.47-27.4,8.34-6.35,4.87-9.51,11.66-9.51,20.36,0,4.38,.76,8.33,2.29,11.84,1.52,3.52,3.67,6.53,6.44,9.04,2.76,2.5,6.05,4.43,9.85,5.79,3.81,1.35,8.01,2.03,12.62,2.03,6.23,0,11.77-1.23,16.64-3.67,4.87-2.45,8.55-5.87,11.03-10.25h1.55v12.45h24.38V66.65c0-5.07-.88-9.6-2.64-13.61Zm-22.17,44.13c0,2.42-.52,4.67-1.56,6.74-1.03,2.08-2.48,3.89-4.32,5.45-1.84,1.56-4.01,2.77-6.48,3.63-2.48,.87-5.19,1.3-8.13,1.3-4.38,0-7.95-1.01-10.72-3.03-2.76-2.01-4.15-4.81-4.15-8.38,0-6.92,5.36-10.75,16.08-11.5l19.28-1.21v7Z"/></g></svg>